/* XPM */
static char *_d9f452fcba94f5bc5e9d7f3f0247c14XyTn5IQM3txB2yFh[] = {
/* columns rows colors chars-per-pixel */
"16 16 5 1 ",
"  c None",
". c #F47E1B",
"X c #F4B41B",
"o c #FFCE00",
"O c #FBFCAA",
/* pixels */
"      Ooo.      ",
"     OooXX.     ",
"    Oo.  XX.    ",
"    O.    X.    ",
"    O.    X.    ",
"    OoooXXX.    ",
"    OooXX...    ",
"       X.       ",
"     OoX.       ",
"     ooX.       ",
"       X.       ",
"       X.       ",
"     OoX.       ",
"     OoX.       ",
"     ooX.       ",
"                "
};
