/* XPM */
static const char	*g_coin_xpm[] = {
/* columns rows colors chars-per-pixel */
"32 32 29 1 ",
"  c #120203",
". c #160100",
"X c #160402",
"o c #2F0302",
"O c #320202",
"+ c #310305",
"@ c #340004",
"# c #3C030A",
"$ c #430000",
"% c #6F0000",
"& c #750101",
"* c #770101",
"= c #740003",
"- c #750004",
"; c #780202",
": c #7E0000",
"> c #B60201",
", c #BA0001",
"< c #FE0002",
"1 c #FF0204",
"2 c #DA4445",
"3 c #E04540",
"4 c #E24647",
"5 c #0E993C",
"6 c #00C62D",
"7 c #70DB00",
"8 c #FAB0B1",
"9 c #FAB2B3",
"0 c #FFB6B6",
/* pixels */
"55577776555577755555556657777755",
"55766755555566755555556555766675",
"57667557775556755777655555576667",
"56566557665555557766665566556566",
"55565557655655555557665556556556",
"55555555555665665555555555555555",
"55777755576555565566656655666555",
"66667556576655555666556557665555",
"55675566577756655665555576666655",
"66655665555555===555555777765556",
"7555555556655=000=66555555555556",
"675566555565&83233-5555555555665",
"67556557755=82<<<<2=555665665565",
"6675557675=81<&==<<2#76665565555",
"6565566755=11-841$<=#77665555555",
"6565666555=<<=4,,O:;.55555557765",
"5556656555=<>=<,,@:+.66555557665",
"5655656555=>>=<,,@:+.65556556655",
"6655555555@>=>O@@>:+.55566555555",
"55566777556o;;>,>=o.666566565555",
"566566777556o=;;;OX6666655665566",
"5556755556655 OOOX65556656655576",
"55555555566655...555555556655577",
"66566566556656666555665555556655",
"56565556555556655555655555555655",
"55556655556555555555556655555566",
"56656555566555555556656556555666",
"55655666566565777756555555655665",
"55555566655665576755577755665555",
"77755556656655557675766775665666",
"66755555556655557665766555555665",
"56755555555555556565656555665555"
};
