/* XPM */
static const char	*g_door_xpm[] = {
/* columns rows colors chars-per-pixel */
"32 32 16 1 ",
"  c #010101",
". c #44311A",
"X c #4C3E3E",
"o c #6C4E03",
"O c #49432C",
"+ c #5F583A",
"@ c #745B46",
"# c #7A6B49",
"$ c #916E11",
"% c #8B6B44",
"& c #8B784E",
"* c #917357",
"= c #A18E24",
"- c #9C8454",
"; c #AA9664",
": c #C5AE77",
/* pixels */
"                                ",
" :;;;*;;;;;;;;;;;;;;;;;;;;*;;;* ",
" ;*@%@%%%%%%%%%%%%%%%%%%%%@*%%@ ",
" ;*@%@%%%%%%%%%%%%%%%%%%%%@*@%@ ",
" ;*%%@%%%%%%%%%%%%%%%%%%%%@*@%@ ",
" ;*@%@@@%@@@%@%@%%%%%%%%%%@*%%@ ",
" ;*@%XXXXXXXXXXXXXXXXXXXXXX*%%@ ",
" ;*%%X+#&&+&&&+&&&+&&&+&&&X*%%@ ",
" ;*%%X+#&&+--&+--&+--&+--&X*@%@ ",
" ;*%%X+#&-+---+--&+--&+---X*%%@ ",
" ;*%%X+#&&+--&+---+--&+---X*%%@ ",
" ;*%%X+#&-+---+--&+---+--&X*%%@ ",
" ;*%%X+#&-+---+---+--&+---X*%%@ ",
" ;*%%X+#&-+---+---+--&+---X*%%@ ",
" ;*%%X+#&-+---+---+---+---X*%%@ ",
" ;*%%X+#&&+&&&+&&&+&&&+&&&X*%%@ ",
" ;*%....;;;;;;;;;;;;;;;;;*X*%%@ ",
" ;.$==$oO.%%%%%%@%%%@%@%@@@*%%@ ",
" ;.o$==$o.%%%%%%%%%%%%%%%%%*%%@ ",
" ;@.OooO.XXXXXXXXXXXXXXXXXX*%%@ ",
" ;*@@X+##&+&&&+&&&+&&&+&&&X*%%@ ",
" ;*%@X+#&&+--&+--&+--&+--&X*%%@ ",
" ;*%@X+#&-+---+--&+--&+--&X*%%@ ",
" ;*%%X+#&-+--&+---+--&+---X*%%@ ",
" ;*%%X+#&&+---+---+--&+---X*%@@ ",
" ;*%@X+#&-+---+--&+--&+---X*%%@ ",
" ;*%%X+#&-+---+---+---+---X*%@@ ",
" ;*%@X+#&-+---+---+---+---X*%%@ ",
" ;*%%X*;;;;;;;;;;;;;;;;;;*X*%@@ ",
" ;*%%@@@%@%@%%%%%%%%%%%%%%@*%@@ ",
" ;*%%@%%%%%%%%%%%%%%%%%%%%@*%@@ ",
"                                "
};

