/* XPM */
static char *fd22cb3529704a0e825463638932b700BjwNm2xkWRMLqZ0m[] = {
/* columns rows colors chars-per-pixel */
"32 32 181 2 ",
"   c #001146",
".  c #00144C",
"X  c #051C4A",
"o  c #001653",
"O  c #001856",
"+  c #001A5C",
"@  c #0A254E",
"#  c #1A234E",
"$  c #0F2C52",
"%  c #102E53",
"&  c #133256",
"*  c #17395A",
"=  c #193C5C",
"-  c #283D4F",
";  c #262C52",
":  c #001C63",
">  c #001F6A",
",  c #01216E",
"<  c #002273",
"1  c #00267C",
"2  c #0B2778",
"3  c #152D7C",
"4  c #323D74",
"5  c #2A475B",
"6  c #1D4462",
"7  c #204966",
"8  c #234E6A",
"9  c #26536E",
"0  c #2A5973",
"q  c #2B5A74",
"w  c #3B606A",
"e  c #2E617A",
"r  c #31657E",
"t  c #3B6A7A",
"y  c #4B6559",
"u  c #516A53",
"i  c #5B7656",
"p  c #5C7D64",
"a  c #6D8955",
"s  c #5C8577",
"d  c #6C8E64",
"f  c #6D9677",
"g  c #8BAD54",
"h  c #87A95B",
"j  c #8EB056",
"k  c #8EB15C",
"l  c #90B357",
"z  c #92B559",
"x  c #96BA5B",
"c  c #9ABE5D",
"v  c #89AE63",
"b  c #8DB364",
"n  c #97BD69",
"m  c #8BB577",
"M  c #92BC77",
"N  c #9CC15F",
"B  c #9FC561",
"V  c #99C371",
"C  c #99C57A",
"Z  c #9AC77D",
"A  c #A1C762",
"S  c #A5CC64",
"D  c #A7D066",
"F  c #A9D167",
"G  c #ACD569",
"H  c #A1CB72",
"J  c #A7D275",
"K  c #AAD574",
"L  c #002780",
"P  c #002985",
"I  c #082A83",
"U  c #002B8C",
"Y  c #0A2D8B",
"T  c #002E93",
"R  c #003097",
"E  c #00319B",
"W  c #09339A",
"Q  c #143493",
"!  c #0033A0",
"~  c #326780",
"^  c #356C84",
"/  c #387087",
"(  c #3A758C",
")  c #3B788F",
"_  c #515884",
"`  c #427F93",
"'  c #707287",
"]  c #5D67AB",
"[  c #6A72A8",
"{  c #598985",
"}  c #418196",
"|  c #43859A",
" . c #45899F",
".. c #4E8F9F",
"X. c #56939B",
"o. c #659280",
"O. c #7EAC86",
"+. c #7EB08F",
"@. c #6EA291",
"#. c #74AD9D",
"$. c #468BA1",
"%. c #498EA3",
"&. c #4A91A6",
"*. c #4B94AA",
"=. c #599CA7",
"-. c #4F9BB1",
";. c #519EB4",
":. c #54A2B7",
">. c #5EA8B4",
",. c #55A6BB",
"<. c #57A8BD",
"1. c #6BACAB",
"2. c #65AEB6",
"3. c #68B2B9",
"4. c #75BBB6",
"5. c #7FC6BB",
"6. c #57AAC0",
"7. c #5CAFC3",
"8. c #5CB1C6",
"9. c #5DB4CA",
"0. c #67B8C5",
"q. c #6BBECB",
"w. c #70BEC4",
"e. c #62BDD2",
"r. c #78C6C7",
"t. c #64C1D6",
"y. c #6CC5D5",
"u. c #66C4DA",
"i. c #6AC6D9",
"p. c #6CCADD",
"a. c #71C7D2",
"s. c #74CAD5",
"d. c #79CDD2",
"f. c #76CFDA",
"g. c #76D0DB",
"h. c #7CD5DC",
"j. c #6BCCE1",
"k. c #6ED0E6",
"l. c #6ED3EA",
"z. c #72D2E4",
"x. c #7CDAE4",
"c. c #81B38E",
"v. c #85B993",
"b. c #8BBF92",
"n. c #8E91A9",
"m. c #9598AA",
"M. c #9497B2",
"N. c #9FA0AD",
"B. c #A1A3BA",
"V. c #AFB0B5",
"C. c #9DCB83",
"Z. c #95CC9B",
"A. c #9DD297",
"S. c #9FD79F",
"D. c #A5D584",
"F. c #A2D48A",
"G. c #A3D692",
"H. c #A0D69B",
"J. c #8EC9A6",
"K. c #84C3AD",
"L. c #8BCAAF",
"P. c #9CD7A5",
"I. c #97D6AF",
"U. c #80C4B5",
"Y. c #85C9B7",
"T. c #8BCDB3",
"R. c #80C6BA",
"E. c #8DD3BE",
"W. c #95D8B9",
"Q. c #82CCC3",
"!. c #8ED7C5",
"~. c #83D2CD",
"^. c #89D7CD",
"/. c #91D8C1",
"(. c #82D6D5",
"). c #86D9D5",
"_. c #88D9D1",
"`. c #80D6D9",
"'. c #83D9DA",
"]. c #C2C2C9",
"[. c #CCCCD1",
/* pixels */
"G S S G G G G G D.H.G F P.).(.!.W.F S G ).'.^.S.K G G G G S S G ",
"G x z N S G G D.(.L.h a p X.9.e.k.e.=.{ f c.T.`.J G G F A z x G ",
"G z g g x H E.~.O.i *.e.9.e.e.j.e.j.u.j.l.l.l.f.J.H.Z.x j g x G ",
"G x g g v b U.3...e.,.*.` ^ ~ 9 8 9 e / -.6.e.j.z.v.d.K.k j c G ",
"G B g v.z.z.u 0.e.7.( 9                 X = ~ ;.i.0.f f.R.j A G ",
"G G V d.1.=.5 $.9 # O   + < < < .           X 8 $.j.X.d R.C G G ",
"G K A.5.y.:.0 r X . o U T U L P o       , T 1 O * ` k.j.v.^.G G ",
"G.`.Q.1.p.,.0 $ . o U 1 #     o + : O   . + 1 U O % -.l.e.Q.z G ",
"K C 4.u.( r   O 1 P 1 ; ' < U ! R R T T 2 N.  < O   & e.e.3.m G ",
"G K.0.&.6 $   T P U + U E E E T P 1 P U P Y :         ) u.k.c.G ",
"G.s.t &.*   : T U < U 1 T T P L P T L 1 U 1 T o       % 9.j.r.G.",
"I.w.( ~ X   L 1 O U 1 P ! T E T > O P U > E P P o ! O   ` e.y.W.",
"G.q.<.$     U 4 B.Y + ! T > o 2 [ Y o P 1 > U T > 1 1   0 u.q.^.",
"S.i.}   .   T n.1.m.P ! > < T E 1 I L O E O U > P + T   7 e.>.G.",
"!.e.( . !   U _ ] o W E + T + L ! , T   E > U : U   U . X ,...x.",
"/.u.e O R   U U Q : E E L U < L T L T , E 1 1 > P #       9.*.x.",
"P.u.`       o 1 T : R R U 1 R T T T L P , T > T 3 m.      *.,.`.",
"^.t 9.%         R o R U E L 1 T R T 1 U > T O R             u.'.",
").y ;.0     R   U < : T R T R R R R P > R , T 1           6 i.'.",
"W.i ;.q     U 1 + R + > T T U U L L P U , T R O   o >     $.q._.",
"F.o.u.7     o R , 2 [ . > T T T P 1 , 1 R W <     < P     <.w.E.",
").4.j.    P , + U > I U > . : P U T R R Q M.;   o T :   ^ e.a.H.",
"/.v.i.^   O E , + ! : > U T U U U T P : M.[.V.  . >   0 j.q.d.K ",
"G n @.t.*   + U 1 : T > P U < : O O > T Y ].        6 ,./ a.Y.G ",
"G F z 3.,.    o o   : :   + o   P U P , .           ;.0.0.m ).D.",
"G K I.v.i.- r *     o :               : U E     8  .p.i.c.!.'.K ",
"G V ~.T.g.j.u.i.=   : U :     + < :   U 1     ) 7.7.i.4.~.h.J.G ",
"G x m M M +.s 9.%.    > O     < L >           *.e.j.c.Q.Y.z x G ",
"G N l l L.~.K.p.e.% @ ` r               = / q ` y.d.n l l l c G ",
"G B z l l b.Z Z.z.2.<.e.t.;.q 9.7.*.9 *.u.k.j.d.`.E.l l l l A G ",
"G D N x l l x F H d.s.p { t.w } | 8.i.p.y.#.k C.F.n l l z B S G ",
"G G F S A n B G F T.x.h.h.'.x.'.'.'._.E.S A A G G B c B S F G G "
};
