/* XPM */
static char *d17846fa47ba468ffbf1e7f66dfcf1a8yDANX9oVkQfKcXZx[] = {
/* columns rows colors chars-per-pixel */
"32 32 183 2 ",
"   c #001146",
".  c #00144C",
"X  c #061E4C",
"o  c #001653",
"O  c #001856",
"+  c #001A5C",
"@  c #0A254E",
"#  c #1A234E",
"$  c #0F2D52",
"%  c #0D2C5E",
"&  c #102E53",
"*  c #133256",
"=  c #17395A",
"-  c #193C5C",
";  c #273C4F",
":  c #262C52",
">  c #001C63",
",  c #001F6A",
"<  c #01216E",
"1  c #002273",
"2  c #00267C",
"3  c #0B2778",
"4  c #152D7C",
"5  c #323D74",
"6  c #2A475B",
"7  c #1D4462",
"8  c #204966",
"9  c #234E6A",
"0  c #26536E",
"q  c #2A5973",
"w  c #2B5A74",
"e  c #3B606A",
"r  c #2E617A",
"t  c #31657D",
"y  c #4B6559",
"u  c #516A53",
"i  c #5B7656",
"p  c #587D6F",
"a  c #406D79",
"s  c #6C8754",
"d  c #5D897E",
"f  c #688A66",
"g  c #6A9379",
"h  c #8CAD54",
"j  c #86A759",
"k  c #8EB056",
"l  c #8EB15B",
"z  c #90B357",
"x  c #92B558",
"c  c #96BA5B",
"v  c #99BE5D",
"b  c #8CB266",
"n  c #93B864",
"m  c #8AB476",
"M  c #8EBB7E",
"N  c #93BD76",
"B  c #9CC25F",
"V  c #9FC561",
"C  c #9AC371",
"Z  c #9FCA77",
"A  c #9AC67C",
"S  c #A0C662",
"D  c #A5CD65",
"F  c #A7D067",
"G  c #A8D167",
"H  c #ACD569",
"J  c #A1CB72",
"K  c #A7D275",
"L  c #AAD574",
"P  c #002780",
"I  c #002985",
"U  c #082A83",
"Y  c #002C8C",
"T  c #0A2D8B",
"R  c #002E93",
"E  c #003097",
"W  c #00319B",
"Q  c #09339A",
"!  c #143493",
"~  c #0033A0",
"^  c #326780",
"/  c #356C84",
"(  c #387187",
")  c #3A758C",
"_  c #3B788F",
"`  c #3E7C93",
"'  c #515884",
"]  c #427F93",
"[  c #707287",
"{  c #5D67AB",
"}  c #6A72A8",
"|  c #5C8C85",
" . c #418196",
".. c #43859A",
"X. c #45899F",
"o. c #4D8E9F",
"O. c #528E98",
"+. c #57959D",
"@. c #6B9F90",
"#. c #7EAC86",
"$. c #7EB08F",
"%. c #6CA69B",
"&. c #468BA1",
"*. c #498EA3",
"=. c #4A91A6",
"-. c #4B94AA",
";. c #5A9DA8",
":. c #4F9BB1",
">. c #519EB4",
",. c #54A2B7",
"<. c #55A6BB",
"1. c #59A8BA",
"2. c #6BADAC",
"3. c #7EBCA9",
"4. c #65AFB8",
"5. c #69B4BB",
"6. c #75BCB8",
"7. c #7FC4B7",
"8. c #7FC6BC",
"9. c #5CAFC3",
"0. c #5CB1C6",
"q. c #5DB4CA",
"w. c #64B7C6",
"e. c #6DBBC4",
"r. c #6BBECB",
"t. c #62BDD2",
"y. c #7AC7C6",
"u. c #7CCDCF",
"i. c #64C1D6",
"p. c #6BC4D5",
"a. c #66C4DA",
"s. c #6AC6D9",
"d. c #6CCADD",
"f. c #71C7D2",
"g. c #74CAD5",
"h. c #7BCED1",
"j. c #76CFDA",
"k. c #7DD2D5",
"l. c #76D0DB",
"z. c #7DD6DD",
"x. c #6BCCE1",
"c. c #6ED0E6",
"v. c #6ED3EA",
"b. c #72D2E4",
"n. c #7CDAE4",
"m. c #82B795",
"M. c #86BA92",
"N. c #8ABE91",
"B. c #8E91A9",
"V. c #9598AA",
"C. c #9497B2",
"Z. c #9FA0AD",
"A. c #A1A3BA",
"S. c #AFB0B5",
"D. c #9DCB83",
"F. c #95CB9A",
"G. c #9FD79F",
"H. c #A5D584",
"J. c #A2D48A",
"K. c #A3D692",
"L. c #A0D69B",
"P. c #8ECAA6",
"I. c #82C2AD",
"U. c #8BCAAF",
"Y. c #9CD6A5",
"T. c #97D6AF",
"R. c #80C4B5",
"E. c #87CAB7",
"W. c #8FD1B6",
"Q. c #8CD2BE",
"!. c #95D8B9",
"~. c #81CCC4",
"^. c #8CD7C7",
"/. c #84D3CD",
"(. c #8CD8CA",
"). c #91D8C1",
"_. c #84D7D4",
"`. c #87D9D4",
"'. c #88D9D1",
"]. c #81D7D9",
"[. c #83D9DA",
"{. c #C2C2C9",
"}. c #CCCCD1",
/* pixels */
"H D G G H H H H G.(.[.(.H H L !.).'.[.Y.H H K.H.H H H H H D D H ",
"H c x B F H H K ].U.m.| | ;.t.v.t.w.O.p s j E._.J.H H G B c c H ",
"H x h k c F.J.P.l.b.v.b.x.t.x.t.a.t.t.q.i.-.i #./.Q.J c z h c H ",
"H c h j I.u.I.c.x.t.9.-.( r 0 0 0 ^ ^ ] -.,.q.o.4.R.b b h k v H ",
"H B k 8.j.g 5.d.>.^ - o                 0 _ w.w.9.u b.b.M.z V H ",
"H G A 7.f +.d.X.8 o     > 1 1 1 .         X * 9 *.6 ;.2.u.C H H ",
"H H (.7.c.x...=     o Y R I P I o       1 R 2 < t w ,.s.R.L.L H ",
"H S ~.e.c.-.$     o Y 2 #     o + > O     + P T % q <.x.2.y.k.J.",
"H N 6.t.t.*   O 2 I 2 : [ 1 Y ~ W W R R 3 Z.  1 o   t ) d.2.m L ",
"H F.x.i._     Y P Y + Y W W W R I 1 Y Y Y T >       & 7 -.w.3.H ",
"K.y.x.q.*   > E Y 1 Y 2 R R I P P R 2 2 Y 2 R .   .   * =.t f.K.",
"!.p.t...    P 2 + Y 2 I ~ R W R < + Y Y > W I Y . W O @ t _ e.T.",
"(.r.a.q     Y 5 A.T + ~ R , o 3 } U O I 2 , I Y < 2 P   * <.r.K.",
"K.1.t.8     R B.2.V.I ~ , 1 R W 2 U 2 O W + Y < P > Y      .s.L.",
"n.*.,.X W   Y ' { . Q W + R + P ~ 1 R   W < I > Y   Y     ( i.^.",
"n.-.q.+ W   Y Y ! > W ~ P Y 1 P R 2 R < W 2 2 < I #       r s.).",
"n.,.-..     o 2 W > E W Y P W R R R P I 1 R , Y 4 V.       .t.Y.",
"`.s.            E . E Y W 2 P Y E R 2 Y , Y + R .       * q.a (.",
"`.s.7       W   Y 1 , Y R R W R R W Y , R 1 R 2         q ,.y `.",
"/.p.&.      Y 1 + E + , R R R I 2 2 I Y 1 R R +   . ,   q >.i !.",
"!.e.1.      . W < 3 } . , R R R I 2 1 1 W Q 1     1 I   7 i.| J.",
"Y.f.t./   I 1 + Y , U Y , . > I Y R R W ! C.:   o E +     x.6.'.",
"L k.r.d.q + W < + ~ > < Y R Y Y Y Y I > C.}.S.  . <     ( s.m.).",
"H E.p.( <.7 + Y 2 > Y , I R 1 + + O 1 Y T {.          = i.@.n H ",
"H.'.M 5.q.:.  . o   > >   + O   I Y I < .             ,.4.l F H ",
"L [.^.M.s.d.&.9     o +               > I W     = t ; s.M.T.L H ",
"H P.z./.6.d.9.9._   > Y >     + 1 >   Y 2     7 s.s.c.l.W./.C H ",
"H c x E./.#.x.t.-.    , +     < P ,           *.0.d $.n M m c H ",
"H v x x x n k.p. .w ( -               t ` @ & i.d.I._.I.z z B H ",
"H V x x z x Q._.g.d.b.a.-.9 -.9.q.q >.i.i.<.4.b.F.A N.z z z V H ",
"H G n c z z n J.D.j %.p.x.s.9.X.] e p.| f f.h.Z F v k z x B G H ",
"H H H D V V V H H v v B Q.'.[.[.[.n.n.].z.z.W.H H V B V D G H H "
};
